<svg id="Capa_1" data-name="Capa 1" xmlns="http://www.w3.org/2000/svg" viewBox="0 0 30 30"><defs><style>.cls-1{fill:#fff;}</style></defs><title>anular</title><path class="cls-1" d="M10,3q-2.68.74-5.32,1.61a.9.9,0,0,0-.62.73A22.69,22.69,0,0,0,8.3,22.55a20,20,0,0,0,4.29,4.18,11.17,11.17,0,0,0,1.67,1,3.64,3.64,0,0,0,.55.22L15,28l.19-.05a3.64,3.64,0,0,0,.55-.22,11.17,11.17,0,0,0,1.67-1,20,20,0,0,0,4.29-4.18A22.69,22.69,0,0,0,25.93,5.32a.9.9,0,0,0-.62-.73C24.09,4.19,22,3.54,20,3a24.57,24.57,0,0,0-5-1,24.7,24.7,0,0,0-5,1Zm-.5-1.93A25.71,25.71,0,0,1,15,0a25.71,25.71,0,0,1,5.49,1.05c2.08.56,4.18,1.23,5.41,1.63a2.88,2.88,0,0,1,2,2.37,24.65,24.65,0,0,1-4.62,18.73,22.38,22.38,0,0,1-4.72,4.6,13.45,13.45,0,0,1-2,1.17A3.92,3.92,0,0,1,15,30a3.87,3.87,0,0,1-1.55-.45,13.45,13.45,0,0,1-2-1.17,22.38,22.38,0,0,1-4.72-4.6A24.69,24.69,0,0,1,2.14,5.05a2.88,2.88,0,0,1,2-2.37Q6.79,1.79,9.51,1.05Z"/><path class="cls-1" d="M13.13,20.63a1.88,1.88,0,1,1,3.75,0h0a1.88,1.88,0,0,1-3.75,0Zm.18-11.26A1.7,1.7,0,0,1,16.69,9a2.16,2.16,0,0,1,0,.36L16,15.94a1,1,0,0,1-1.14.92,1,1,0,0,1-.92-.92Z"/></svg>