<svg id="Capa_1" data-name="Capa 1" xmlns="http://www.w3.org/2000/svg" viewBox="0 0 20 20"><title>articulos</title><path d="M18.93,6.36a2.64,2.64,0,0,0-.28-1.15.68.68,0,0,0-.07-.2.88.88,0,0,0-.22-.25,2.56,2.56,0,0,0-.75-.68L11.32.48a2.63,2.63,0,0,0-2.63,0L2.38,4.08a2.75,2.75,0,0,0-.75.69A.83.83,0,0,0,1.42,5a1.27,1.27,0,0,0-.06.18,2.64,2.64,0,0,0-.3,1.17v7.2a2.63,2.63,0,0,0,1.33,2.28l6.29,3.6a2.66,2.66,0,0,0,.9.3.74.74,0,0,0,.84,0,2.41,2.41,0,0,0,.89-.3l6.31-3.6a2.63,2.63,0,0,0,1.31-2.21s0-.05,0-.07ZM9.52,1.93A.89.89,0,0,1,10,1.8a1,1,0,0,1,.49.13L16.4,5.31,10,9,3.6,5.31ZM3.22,14.4a1,1,0,0,1-.49-.84V6.73l6.44,3.72V17.8Zm14.05-.84a1,1,0,0,1-.48.84l-6,3.4V10.45l6.44-3.72v6.83Z"/></svg>