<svg id="Capa_1" data-name="Capa 1" xmlns="http://www.w3.org/2000/svg" viewBox="0 0 255.61 36.05"><defs><style>.cls-1{fill:#097ff5;}.cls-2{fill:#fff;}</style></defs><title>boton iniciar</title><path class="cls-1" d="M237.58,36.05H18A18,18,0,0,1,0,18H0A18,18,0,0,1,18,0H237.58a18,18,0,0,1,18,18h0A18,18,0,0,1,237.58,36.05Z"/><path class="cls-2" d="M99.28,23.39a.31.31,0,0,1-.31-.31V14.62a.31.31,0,0,1,.09-.22.29.29,0,0,1,.22-.09h1.22a.28.28,0,0,1,.22.09.31.31,0,0,1,.09.22v8.46a.29.29,0,0,1-.09.22.28.28,0,0,1-.22.09Z"/><path class="cls-2" d="M105.1,23.39a.31.31,0,0,1-.22-.09.29.29,0,0,1-.09-.22V14.64a.32.32,0,0,1,.09-.24.31.31,0,0,1,.22-.09h1a.37.37,0,0,1,.27.09l.11.12,3.73,5.81V14.64a.32.32,0,0,1,.09-.24.3.3,0,0,1,.23-.09h1.09a.32.32,0,0,1,.23.09.32.32,0,0,1,.09.24v8.43a.32.32,0,0,1-.09.23.29.29,0,0,1-.22.09h-1a.33.33,0,0,1-.26-.09.36.36,0,0,0-.12-.11l-3.72-5.69v5.58a.29.29,0,0,1-.09.22.34.34,0,0,1-.24.09Z"/><path class="cls-2" d="M116.22,23.39a.31.31,0,0,1-.22-.09.29.29,0,0,1-.09-.22V14.62a.31.31,0,0,1,.31-.31h1.22a.3.3,0,0,1,.23.09.35.35,0,0,1,.08.22v8.46a.33.33,0,0,1-.08.22.3.3,0,0,1-.23.09Z"/><path class="cls-2" d="M125.24,23.52a4.49,4.49,0,0,1-2-.42,2.92,2.92,0,0,1-1.28-1.2,4.26,4.26,0,0,1-.5-1.89c0-.36,0-.74,0-1.14s0-.8,0-1.17a4.31,4.31,0,0,1,.5-1.88,3,3,0,0,1,1.29-1.22,4.48,4.48,0,0,1,2-.42,4.81,4.81,0,0,1,1.58.24,3.62,3.62,0,0,1,1.2.64,3,3,0,0,1,.76,1,2.78,2.78,0,0,1,.29,1.18.25.25,0,0,1-.07.2.31.31,0,0,1-.21.07h-1.23a.35.35,0,0,1-.23-.07.35.35,0,0,1-.13-.24,1.78,1.78,0,0,0-.71-1.16,2.36,2.36,0,0,0-1.26-.32,2,2,0,0,0-1.39.49,2.22,2.22,0,0,0-.56,1.6c0,.71,0,1.44,0,2.18a2.25,2.25,0,0,0,.56,1.61,2,2,0,0,0,1.39.48,2.27,2.27,0,0,0,1.26-.32,1.75,1.75,0,0,0,.71-1.16.35.35,0,0,1,.13-.24.35.35,0,0,1,.23-.07h1.23a.32.32,0,0,1,.21.08.23.23,0,0,1,.07.19,2.74,2.74,0,0,1-.29,1.18,2.94,2.94,0,0,1-.76,1,3.81,3.81,0,0,1-1.2.64A4.82,4.82,0,0,1,125.24,23.52Z"/><path class="cls-2" d="M132.87,23.39a.31.31,0,0,1-.31-.31V14.62a.31.31,0,0,1,.09-.22.29.29,0,0,1,.22-.09h1.22a.32.32,0,0,1,.23.09.35.35,0,0,1,.08.22v8.46a.33.33,0,0,1-.08.22.32.32,0,0,1-.23.09Z"/><path class="cls-2" d="M137.82,23.39a.26.26,0,0,1-.18-.07.27.27,0,0,1-.09-.2.35.35,0,0,1,0-.12l3.13-8.36a.43.43,0,0,1,.14-.23.45.45,0,0,1,.31-.1h1.41a.4.4,0,0,1,.3.1.63.63,0,0,1,.16.23L146.15,23a.74.74,0,0,1,0,.12.3.3,0,0,1-.08.2.24.24,0,0,1-.18.07h-1.13a.36.36,0,0,1-.27-.08.66.66,0,0,1-.11-.16l-.61-1.58h-3.85l-.61,1.58a.46.46,0,0,1-.11.16.36.36,0,0,1-.27.08Zm2.57-3.32h3l-1.48-4Z"/><path class="cls-2" d="M149.63,23.39a.31.31,0,0,1-.22-.09.29.29,0,0,1-.09-.22V14.64a.32.32,0,0,1,.09-.24.31.31,0,0,1,.22-.09H153a3.84,3.84,0,0,1,2.48.73,2.53,2.53,0,0,1,.91,2.11,2.58,2.58,0,0,1-.48,1.6,2.63,2.63,0,0,1-1.26.92L156.53,23a.27.27,0,0,1,0,.14.3.3,0,0,1-.08.2.28.28,0,0,1-.19.07h-1.18a.45.45,0,0,1-.34-.11.94.94,0,0,1-.18-.24L152.93,20h-1.81v3.11a.29.29,0,0,1-.08.22.3.3,0,0,1-.23.09Zm1.49-4.89H153a1.73,1.73,0,0,0,1.18-.35,1.31,1.31,0,0,0,.39-1,1.34,1.34,0,0,0-.38-1,1.68,1.68,0,0,0-1.19-.37h-1.83Z"/></svg>