<svg id="Capa_1" data-name="Capa 1" xmlns="http://www.w3.org/2000/svg" viewBox="0 0 20 20"><defs><style>.cls-1{isolation:isolate;}</style></defs><title>categorias</title><g id="Icon_feather-filter" data-name="Icon feather-filter" class="cls-1"><path d="M11.8,18.93a.8.8,0,0,1-.37-.08L7.83,17a.82.82,0,0,1-.46-.74V10.72l-7-8.28a.85.85,0,0,1-.12-.89A.84.84,0,0,1,1,1.07H19a.84.84,0,0,1,.76.48.85.85,0,0,1-.12.89l-7,8.28V18.1a.84.84,0,0,1-.39.71A.88.88,0,0,1,11.8,18.93ZM9,15.79l1.94,1V10.41a.86.86,0,0,1,.19-.53l6-7.15H2.8l6,7.15a.86.86,0,0,1,.19.53Z"/></g></svg>