<svg id="Capa_1" data-name="Capa 1" xmlns="http://www.w3.org/2000/svg" viewBox="0 0 20 20"><title>clientes</title><g id="Icon_feather-user" data-name="Icon feather-user"><g id="Trazado_418" data-name="Trazado 418"><path d="M17.2,18.93a.83.83,0,0,1-.83-.83V16.3a2.77,2.77,0,0,0-2.77-2.77H6.4A2.77,2.77,0,0,0,3.63,16.3v1.8A.83.83,0,1,1,2,18.1V16.3A4.43,4.43,0,0,1,6.4,11.87h7.2A4.44,4.44,0,0,1,18,16.3v1.8A.83.83,0,0,1,17.2,18.93Z"/></g><g id="Trazado_419" data-name="Trazado 419"><path d="M10,9.93A4.43,4.43,0,1,1,14.43,5.5,4.44,4.44,0,0,1,10,9.93Zm0-7.2A2.77,2.77,0,1,0,12.77,5.5,2.77,2.77,0,0,0,10,2.73Z"/></g></g></svg>