<svg id="Capa_1" data-name="Capa 1" xmlns="http://www.w3.org/2000/svg" viewBox="0 0 30 30"><defs><style>.cls-1,.cls-2{fill:#ff3d00;}.cls-2{fill-rule:evenodd;}</style></defs><title>eliminar</title><path class="cls-1" d="M10,11a1,1,0,0,1,1,1V24a1,1,0,1,1-2,0V12A1,1,0,0,1,10,11Zm5,0a1,1,0,0,1,1,1V24a1,1,0,0,1-2,0V12A1,1,0,0,1,15,11Zm6,1a1,1,0,0,0-2,0V24a1,1,0,1,0,2,0Z"/><path class="cls-2" d="M27.94,6a2,2,0,0,1-2,2H25V26a4,4,0,0,1-4,4H9a4,4,0,0,1-4-4V8h-1a2,2,0,0,1-2-2v-2a2,2,0,0,1,2-2h7a2,2,0,0,1,2-2h4a2,2,0,0,1,2,2h7a2,2,0,0,1,2,2ZM7.27,8,7,8.15V26a2,2,0,0,0,2,2H21a2,2,0,0,0,2-2V8.15L22.73,8ZM4.05,6v-2H26V6Z"/></svg>