<svg id="Capa_1" data-name="Capa 1" xmlns="http://www.w3.org/2000/svg" viewBox="0 0 30 30"><title>exit 2.0</title><g id="logout"><g id="Grupo_26" data-name="Grupo 26"><path id="Trazado_40" data-name="Trazado 40" d="M14.51,27.67H7.05A3.67,3.67,0,0,1,3.38,24V6A3.68,3.68,0,0,1,7.05,2.33h7.58a.82.82,0,0,0,.79-.85.83.83,0,0,0-.79-.79H7.05A5.33,5.33,0,0,0,1.74,6V24a5.33,5.33,0,0,0,5.31,5.31h7.46a.82.82,0,0,0,0-1.64Z"/><path id="Trazado_41" data-name="Trazado 41" d="M28,14.43,22.81,9.22a.82.82,0,1,0-1.16,1.16h0l3.81,3.81H8.83a.82.82,0,0,0,0,1.64H25.46l-3.81,3.81a.83.83,0,0,0,0,1.17.82.82,0,0,0,.58.23.74.74,0,0,0,.57-.24L28,15.59a.82.82,0,0,0,0-1.16Z"/></g></g></svg>