<svg id="Capa_1" data-name="Capa 1" xmlns="http://www.w3.org/2000/svg" viewBox="0 0 47.78 47.78"><defs><style>.cls-1{fill:#fff;fill-rule:evenodd;}</style></defs><title>icono de expandir menu 1</title><path class="cls-1" d="M0,41.27a2.18,2.18,0,0,1,2.17-2.18H45.61a2.18,2.18,0,0,1,0,4.35H2.17A2.17,2.17,0,0,1,0,41.27Z"/><path class="cls-1" d="M0,23.89a2.17,2.17,0,0,1,2.17-2.17H45.61a2.17,2.17,0,1,1,0,4.34H2.17A2.17,2.17,0,0,1,0,23.89Z"/><path class="cls-1" d="M0,6.52A2.18,2.18,0,0,1,2.17,4.34H45.61a2.18,2.18,0,0,1,0,4.35H2.17A2.17,2.17,0,0,1,0,6.52Z"/></svg>