<svg id="Capa_1" data-name="Capa 1" xmlns="http://www.w3.org/2000/svg" viewBox="0 0 47.78 47.78"><defs><style>.cls-1{fill:#fff;fill-rule:evenodd;}</style></defs><title>icono de expandir menu 2</title><path class="cls-1" d="M0,23.89a2.17,2.17,0,0,1,2.17-2.17H45.61a2.17,2.17,0,1,1,0,4.34H2.17A2.17,2.17,0,0,1,0,23.89Z"/><path class="cls-1" d="M0,6.52c0-1.2.64-2.18,1.42-2.18H29.8c.79,0,1.42,1,1.42,2.18s-.63,2.17-1.42,2.17H1.42C.64,8.69,0,7.72,0,6.52Z"/><path class="cls-1" d="M16.56,41.27c0-1.2.64-2.18,1.42-2.18H46.36c.79,0,1.42,1,1.42,2.18s-.63,2.17-1.42,2.17H18C17.2,43.44,16.56,42.47,16.56,41.27Z"/></svg>