<svg id="Capa_1" data-name="Capa 1" xmlns="http://www.w3.org/2000/svg" viewBox="0 0 20 20"><defs><style>.cls-1{stroke:#000;stroke-width:0.15px;}</style></defs><title>facutra de salida</title><g id="Grupo_209" data-name="Grupo 209"><path id="Icon_payment-invoice-sign-alt-o" data-name="Icon payment-invoice-sign-alt-o" d="M17.82,4.25a2.81,2.81,0,0,1,.55.82,2.36,2.36,0,0,1,.2,1V19a1,1,0,0,1-.31.74,1,1,0,0,1-.75.31h-15a1,1,0,0,1-.75-.31A1,1,0,0,1,1.43,19V1A1,1,0,0,1,1.74.3,1.07,1.07,0,0,1,2.49,0h10a2.36,2.36,0,0,1,1,.24,2.88,2.88,0,0,1,.86.51Zm-.66,14.32V7.14H12.5a1,1,0,0,1-.74-.31,1,1,0,0,1-.31-.78V1.43H2.84V18.57ZM5.69,8.94a.4.4,0,0,1,.12-.27.37.37,0,0,1,.24-.12H14a.35.35,0,0,1,.23.12.36.36,0,0,1,.12.27v.7c0,.14,0,.21-.12.24A.3.3,0,0,1,14,10H6.05a.32.32,0,0,1-.24-.11q-.12,0-.12-.24ZM14,11.44a.32.32,0,0,1,.23.08.36.36,0,0,1,.12.27v.7a.36.36,0,0,1-.12.28.63.63,0,0,1-.23.08H6.05a.75.75,0,0,1-.24-.08.39.39,0,0,1-.11-.28v-.7a.39.39,0,0,1,.11-.27.35.35,0,0,1,.24-.08Zm0,2.86a.49.49,0,0,1,.23.08.36.36,0,0,1,.12.27v.7a.36.36,0,0,1-.12.27.49.49,0,0,1-.23.08H6.05a.57.57,0,0,1-.24-.08.39.39,0,0,1-.11-.27v-.7a.39.39,0,0,1,.11-.27.57.57,0,0,1,.24-.08ZM12.85,1.51V5.69h4.22a.71.71,0,0,0-.27-.43L13.32,1.74a1.21,1.21,0,0,0-.47-.23Z"/><path id="Icon_metro-money" data-name="Icon metro-money" class="cls-1" d="M7.67,4.29c-.62-.16-.82-.33-.82-.59s.27-.51.74-.51.67.23.69.58h.61A1.1,1.1,0,0,0,8,2.71v-.6H7.18v.6a1.09,1.09,0,0,0-1,1c0,.64.53,1,1.3,1.14s.83.41.83.67S8.21,6,7.59,6s-.79-.25-.82-.58H6.16a1.15,1.15,0,0,0,1,1.05v.6H8v-.6a1,1,0,0,0,1-1C9,4.72,8.3,4.45,7.67,4.29Z"/></g></svg>