<svg id="Capa_1" data-name="Capa 1" xmlns="http://www.w3.org/2000/svg" viewBox="0 0 20 20"><defs><style>.cls-1{isolation:isolate;}</style></defs><title>factura de entrada</title><g id="Icon_awesome-cash-register" data-name="Icon awesome-cash-register" class="cls-1"><path d="M18.56,20.28H1.44a1.74,1.74,0,0,1-1.22-.5,1.7,1.7,0,0,1-.5-1.22V15.09a2.59,2.59,0,0,1,0-.48l1-6.12a1.73,1.73,0,0,1,1.7-1.44H5.22V5.61H2.05A1.11,1.11,0,0,1,.94,4.5V.83A1.11,1.11,0,0,1,2.05-.28h9.79A1.11,1.11,0,0,1,13,.83V4.51a1.11,1.11,0,0,1-1.11,1.11H8.67V7.06h8.86a1.73,1.73,0,0,1,1.7,1.44l1,6.11a2.07,2.07,0,0,1,0,.5v3.45a1.72,1.72,0,0,1-.5,1.22A1.74,1.74,0,0,1,18.56,20.28ZM2.48,8.05a.74.74,0,0,0-.72.61l-1,6.11c0,.11,0,.21,0,.32v3.47a.72.72,0,0,0,.72.72H18.56a.72.72,0,0,0,.72-.72V15.09a1.42,1.42,0,0,0,0-.3h0l-1-6.12a.72.72,0,0,0-.71-.6H7.67V4.62h4.17A.11.11,0,0,0,12,4.5V.83a.11.11,0,0,0-.11-.11H2.05a.11.11,0,0,0-.11.11V4.5a.11.11,0,0,0,.12.11H6.22V8.05Zm4.16,10.4a.82.82,0,0,1-.81-.8V17a.82.82,0,0,1,.81-.8h6.73a.8.8,0,0,1,.8.8v.62a.82.82,0,0,1-.81.8Zm.19-1.22v.22h6.34v-.22ZM13.17,17Zm.2-2.56a1.13,1.13,0,0,1-1.11-1.11v-.62a1.11,1.11,0,0,1,1.11-1.11H14a1.11,1.11,0,0,1,1.11,1.11v.62A1.13,1.13,0,0,1,14,14.48Zm0-1.84a.11.11,0,0,0-.11.11v.61a.12.12,0,0,0,.11.12H14a.12.12,0,0,0,.11-.12v-.61a.11.11,0,0,0-.11-.11ZM6,14.48a1.13,1.13,0,0,1-1.11-1.11v-.62A1.11,1.11,0,0,1,6,11.64h.61a1.11,1.11,0,0,1,1.11,1.11v.61a1.13,1.13,0,0,1-1.11,1.12Zm-.11-1.12a.13.13,0,0,0,.11.12h.61a.12.12,0,0,0,.11-.12v-.61a.11.11,0,0,0-.11-.11H6a.11.11,0,0,0-.11.12ZM9.7,14.47a1.11,1.11,0,0,1-1.11-1.1v-.62A1.11,1.11,0,0,1,9.7,11.64h.61a1.11,1.11,0,0,1,1.11,1.11v.61a1.11,1.11,0,0,1-1.11,1.11Zm0-1.83a.11.11,0,0,0-.11.11v.61a.11.11,0,0,0,.11.11h.61a.11.11,0,0,0,.11-.11v-.61a.11.11,0,0,0-.11-.11Zm5.5-1.22a1.11,1.11,0,0,1-1.11-1.11V9.7A1.12,1.12,0,0,1,15.2,8.58h.61a1.12,1.12,0,0,1,1.11,1.11v.62a1.11,1.11,0,0,1-1.11,1.11Zm0-1.84a.12.12,0,0,0-.11.12v.61a.11.11,0,0,0,.11.11h.61a.11.11,0,0,0,.11-.11V9.7a.11.11,0,0,0-.11-.12ZM4.81,11.42H4.19a1.11,1.11,0,0,1-1.11-1.11V9.7A1.12,1.12,0,0,1,4.19,8.58h.62A1.13,1.13,0,0,1,5.92,9.69v.62a1.13,1.13,0,0,1-1.11,1.11ZM4.19,9.58a.11.11,0,0,0-.11.12v.61a.11.11,0,0,0,.11.11H4.8a.12.12,0,0,0,.12-.11V9.7a.12.12,0,0,0-.12-.12Zm8,1.84h-.61a1.12,1.12,0,0,1-1.11-1.11V9.69a1.11,1.11,0,0,1,1.11-1.11h.61a1.11,1.11,0,0,1,1.11,1.11v.61A1.12,1.12,0,0,1,12.14,11.42ZM11.42,9.7v.6a.11.11,0,0,0,.11.12h.61a.11.11,0,0,0,.11-.12V9.69a.11.11,0,0,0-.11-.11h-.61A.11.11,0,0,0,11.42,9.7ZM8.48,11.42H7.86a1.13,1.13,0,0,1-1.11-1.11V9.7A1.13,1.13,0,0,1,7.86,8.58h.62a1.11,1.11,0,0,1,1.1,1.11v.61A1.11,1.11,0,0,1,8.48,11.42Zm0-1.84H7.86a.12.12,0,0,0-.11.12v.6a.11.11,0,0,0,.11.12h.61a.11.11,0,0,0,.11-.12V9.69A.11.11,0,0,0,8.47,9.58Zm2.64-5.81H2.77V1.55h8.34Zm-7.34-1h6.34V2.55H3.77Z"/></g></svg>