<svg id="Capa_1" data-name="Capa 1" xmlns="http://www.w3.org/2000/svg" viewBox="0 0 30 30"><defs><style>.cls-1{fill:#fff;}</style></defs><title>facturas</title><path class="cls-1" d="M12.09,12.73a.32.32,0,0,1,.15-.27.48.48,0,0,1,.29-.12h9.79a.45.45,0,0,1,.29.12.32.32,0,0,1,.15.27v.68c0,.13-.05.21-.15.23a.4.4,0,0,1-.29.11H12.53a.42.42,0,0,1-.29-.11.21.21,0,0,1-.15-.23Z"/><path class="cls-1" d="M12.09,19.73a.32.32,0,0,1,.15-.27.48.48,0,0,1,.29-.12h9.79a.45.45,0,0,1,.29.12.32.32,0,0,1,.15.27v.68c0,.13-.05.21-.15.23a.4.4,0,0,1-.29.11H12.53a.42.42,0,0,1-.29-.11.21.21,0,0,1-.15-.23Z"/><path class="cls-1" d="M12.09,16.23a.32.32,0,0,1,.15-.27.48.48,0,0,1,.29-.12h9.79a.45.45,0,0,1,.29.12.32.32,0,0,1,.15.27v.68c0,.13-.05.21-.15.23a.4.4,0,0,1-.29.11H12.53a.42.42,0,0,1-.29-.11.21.21,0,0,1-.15-.23Z"/><path class="cls-1" d="M27.81,6.65a3.71,3.71,0,0,0-.68-1L22.81,1.27A3.71,3.71,0,0,0,21.75.63,3,3,0,0,0,20.53.34H8.12a1.29,1.29,0,0,0-.93.39,1.14,1.14,0,0,0-.38.92V23.87a1.15,1.15,0,0,0,.38.92,1.29,1.29,0,0,0,.93.39H26.75a1.29,1.29,0,0,0,.92-.39,1.2,1.2,0,0,0,.39-.92v-16A3,3,0,0,0,27.81,6.65ZM21,2.23a1.76,1.76,0,0,1,.58.29l4.32,4.37a.85.85,0,0,1,.34.53H21ZM26.3,23.38H8.55V2.14H19.22V7.86a1.22,1.22,0,0,0,.39,1,1.29,1.29,0,0,0,.92.39H26.3Z"/><path class="cls-1" d="M14.57,5.59c-.8-.21-1-.4-1-.64s.33-.54.83-.54.75.2.77.63v.08h.94V5a1.45,1.45,0,0,0-1.1-1.38V2.89H13.84v.76A1.42,1.42,0,0,0,12.64,5c0,1,1,1.33,1.68,1.5s1,.47,1,.74-.06.51-.83.51q-.87,0-.93-.63V7h-.94v.1a1.53,1.53,0,0,0,1.26,1.37v.75h1.21V8.47a1.32,1.32,0,0,0,1.2-1.29C16.25,6.17,15.4,5.81,14.57,5.59Z"/><path class="cls-1" d="M21.44,26.21v1.65H3.69V6.62H5.78V4.82H3.25a1.29,1.29,0,0,0-.92.39,1.2,1.2,0,0,0-.39.92V28.35a1.18,1.18,0,0,0,.39.92,1.29,1.29,0,0,0,.92.39H21.88a1.29,1.29,0,0,0,.93-.39,1.14,1.14,0,0,0,.38-.92V26.21Z"/></svg>