<svg id="Capa_1" data-name="Capa 1" xmlns="http://www.w3.org/2000/svg" viewBox="0 0 26.01 20"><defs><style>.cls-1,.cls-2{isolation:isolate;}</style></defs><title>forma de entrada</title><g id="F-2" class="cls-1"><g class="cls-1"><path d="M1.9,4.85V9.49H8.57v1.63H1.9V16.5H0V3.2H9.39V4.85Z"/></g></g><path id="Icon_ionic-md-exit-4" data-name="Icon ionic-md-exit-4" class="cls-2" d="M15.51,8.42,14.34,9.58l4.17,4.17,4.16-4.17L21.51,8.42l-2.17,2.16V2.5H17.67v8ZM26,15.83V4.17A1.68,1.68,0,0,0,24.34,2.5H21V4.17h3.33V15.83H12.67V4.17H16V2.5H12.67A1.66,1.66,0,0,0,11,4.17V15.83a1.66,1.66,0,0,0,1.66,1.67H24.34A1.68,1.68,0,0,0,26,15.83Z"/></svg>