<svg id="Capa_1" data-name="Capa 1" xmlns="http://www.w3.org/2000/svg" viewBox="0 0 30 30"><defs><style>.cls-1{fill:#fff;}</style></defs><title>Formas</title><g id="settings-1"><g id="Grupo_34" data-name="Grupo 34"><path id="Trazado_67" data-name="Trazado 67" class="cls-1" d="M15.86,14.63V1.17a.83.83,0,1,0-1.65,0V14.63a4.18,4.18,0,0,0,0,8.2v6a.83.83,0,0,0,1.65,0v-6a4.18,4.18,0,0,0,0-8.2ZM15,21.26a2.53,2.53,0,1,1,2.53-2.53A2.53,2.53,0,0,1,15,21.26Z"/><path id="Trazado_68" data-name="Trazado 68" class="cls-1" d="M5.77,7.73V1.17a.83.83,0,1,0-1.65,0V7.73a4.18,4.18,0,0,0,0,8.2v12.9a.83.83,0,1,0,1.65,0V15.92a4.18,4.18,0,0,0,0-8.2Zm-.83,6.63a2.54,2.54,0,1,1,2.54-2.53A2.53,2.53,0,0,1,4.94,14.36Z"/><path id="Trazado_69" data-name="Trazado 69" class="cls-1" d="M25.88,7.73V1.17a.83.83,0,1,0-1.65,0V7.73a4.18,4.18,0,0,0,0,8.2v12.9a.83.83,0,1,0,1.65,0V15.92a4.18,4.18,0,0,0,0-8.2Zm-.82,6.63a2.54,2.54,0,1,1,2.53-2.53h0a2.53,2.53,0,0,1-2.53,2.53Z"/></g></g></svg>