<svg id="Capa_1" data-name="Capa 1" xmlns="http://www.w3.org/2000/svg" viewBox="0 0 26.01 20"><defs><style>.cls-1,.cls-2{isolation:isolate;}</style></defs><title>forma de salida</title><g id="F" class="cls-1"><g class="cls-1"><path d="M1.9,4.85V9.49H8.57v1.63H1.9V16.5H0V3.2H9.39V4.85Z"/></g></g><polygon class="cls-2" points="20.67 13 21.84 14.17 26 10 21.84 5.83 20.67 7 22.84 9.17 14.76 9.17 14.76 10.83 22.8 10.83 20.67 13"/><path class="cls-2" d="M24.34,14.27v1.56H12.67V4.17H24.34V5.73H26V4.17A1.68,1.68,0,0,0,24.34,2.5H12.67A1.66,1.66,0,0,0,11,4.17V15.83a1.66,1.66,0,0,0,1.66,1.67H24.34A1.68,1.68,0,0,0,26,15.83V14.27Z"/></svg>