<svg id="Capa_1" data-name="Capa 1" xmlns="http://www.w3.org/2000/svg" viewBox="0 0 27 30"><defs><style>.cls-1{fill:#fff;}</style></defs><title>home 2.0</title><path class="cls-1" d="M26.39,10.09,14.15.56a1.08,1.08,0,0,0-1.3,0L.61,10.09a1,1,0,0,0-.41.83v15A3.79,3.79,0,0,0,4,29.66H23a3.79,3.79,0,0,0,3.78-3.78v-15A1,1,0,0,0,26.39,10.09ZM16.52,27.54h-6V16.06h6Zm8.16-1.66A1.66,1.66,0,0,1,23,27.54H18.64V15a1.07,1.07,0,0,0-1.06-1.06H9.42A1.07,1.07,0,0,0,8.36,15V27.54H4a1.66,1.66,0,0,1-1.66-1.66V11.44L13.5,2.74l11.18,8.7Z"/></svg>