<svg id="Capa_1" data-name="Capa 1" xmlns="http://www.w3.org/2000/svg" viewBox="0 0 30 30"><defs><style>.cls-1{fill:#fff;}</style></defs><title>inventario</title><g id="pie-chart"><g id="Grupo_30" data-name="Grupo 30"><path id="Trazado_56" data-name="Trazado 56" class="cls-1" d="M25.68,15.74H14.26V4.32a.84.84,0,0,0-.83-.83h0A13.09,13.09,0,1,0,26.51,16.58.84.84,0,0,0,25.68,15.74ZM13.43,28A11.42,11.42,0,0,1,12.6,5.18v11.4a.83.83,0,0,0,.82.83h11.4A11.44,11.44,0,0,1,13.42,28Z"/><path id="Trazado_57" data-name="Trazado 57" class="cls-1" d="M29.65,13.4A13.1,13.1,0,0,0,16.55.34a.83.83,0,0,0-.83.83h0V13.45a.83.83,0,0,0,.82.83H28.82a.84.84,0,0,0,.84-.83h0Zm-12.27-.78V2A11.46,11.46,0,0,1,28,12.62Z"/></g></g></svg>