<svg xmlns="http://www.w3.org/2000/svg" xmlns:xlink="http://www.w3.org/1999/xlink" viewBox="0 0 451.54 552.64"><defs><style>.cls-1,.cls-12,.cls-14{fill:none;}.cls-2,.cls-20,.cls-21,.cls-24{isolation:isolate;}.cls-3{clip-path:url(#clip-path);}.cls-4{fill:url(#Degradado_sin_nombre_23);}.cls-5{opacity:0.3;fill:url(#Degradado_sin_nombre_25);}.cls-5,.cls-6{mix-blend-mode:color-burn;}.cls-6{opacity:0.45;fill:url(#Degradado_sin_nombre_24);}.cls-11,.cls-13,.cls-14,.cls-7,.cls-8{opacity:0.6;}.cls-11,.cls-13,.cls-14,.cls-7,.cls-8,.cls-9{mix-blend-mode:overlay;}.cls-7{fill:url(#Degradado_sin_nombre_1532);}.cls-8{fill:url(#Degradado_sin_nombre_1533);}.cls-9{opacity:0.4;}.cls-10,.cls-13,.cls-15,.cls-20,.cls-21,.cls-24{fill:#fff;}.cls-12,.cls-14{stroke:#fff;stroke-miterlimit:10;stroke-width:0.49px;}.cls-15{font-size:12.23px;font-family:Rubik-Regular, Rubik;letter-spacing:0.05em;}.cls-16{letter-spacing:0.02em;}.cls-17{letter-spacing:0.05em;}.cls-18{letter-spacing:0.04em;}.cls-19{letter-spacing:0.05em;}.cls-20{opacity:0.1;}.cls-21{font-size:15.74px;font-family:Montserrat-Bold, Montserrat;font-weight:700;letter-spacing:0.09em;}.cls-22{letter-spacing:0.09em;}.cls-23{letter-spacing:0.1em;}.cls-24{opacity:0.35;}</style><clipPath id="clip-path"><rect class="cls-1" width="451.54" height="552.64"/></clipPath><linearGradient id="Degradado_sin_nombre_23" x1="225.77" y1="552.64" x2="225.77" gradientUnits="userSpaceOnUse"><stop offset="0" stop-color="#097ff5"/><stop offset="0.28" stop-color="#1687f7"/><stop offset="0.8" stop-color="#399afd"/><stop offset="1" stop-color="#48a3ff"/></linearGradient><linearGradient id="Degradado_sin_nombre_25" x1="207.05" y1="427.88" x2="224.25" y2="624.5" gradientUnits="userSpaceOnUse"><stop offset="0" stop-color="#2390ff"/><stop offset="0.05" stop-color="#2390ff" stop-opacity="0.93"/><stop offset="0.3" stop-color="#2390ff" stop-opacity="0.6"/><stop offset="0.52" stop-color="#2390ff" stop-opacity="0.35"/><stop offset="0.7" stop-color="#2390ff" stop-opacity="0.16"/><stop offset="0.84" stop-color="#2390ff" stop-opacity="0.04"/><stop offset="0.91" stop-color="#2390ff" stop-opacity="0"/></linearGradient><linearGradient id="Degradado_sin_nombre_24" x1="217.3" y1="632.4" x2="217.3" y2="466.1" gradientUnits="userSpaceOnUse"><stop offset="0.09" stop-color="#2390ff" stop-opacity="0"/><stop offset="0.16" stop-color="#2390ff" stop-opacity="0.04"/><stop offset="0.3" stop-color="#2390ff" stop-opacity="0.16"/><stop offset="0.48" stop-color="#2390ff" stop-opacity="0.35"/><stop offset="0.7" stop-color="#2390ff" stop-opacity="0.6"/><stop offset="0.95" stop-color="#2390ff" stop-opacity="0.93"/><stop offset="1" stop-color="#2390ff"/></linearGradient><linearGradient id="Degradado_sin_nombre_1532" x1="10601.86" y1="-5227.61" x2="10601.86" y2="-5441.36" gradientTransform="translate(10819.16 -5289.72) rotate(180)" gradientUnits="userSpaceOnUse"><stop offset="0.04" stop-color="#fff" stop-opacity="0"/><stop offset="0.16" stop-color="#fff" stop-opacity="0.02"/><stop offset="0.28" stop-color="#fff" stop-opacity="0.06"/><stop offset="0.4" stop-color="#fff" stop-opacity="0.14"/><stop offset="0.52" stop-color="#fff" stop-opacity="0.24"/><stop offset="0.63" stop-color="#fff" stop-opacity="0.38"/><stop offset="0.75" stop-color="#fff" stop-opacity="0.55"/><stop offset="0.86" stop-color="#fff" stop-opacity="0.75"/><stop offset="0.98" stop-color="#fff" stop-opacity="0.98"/><stop offset="0.99" stop-color="#fff"/></linearGradient><linearGradient id="Degradado_sin_nombre_1533" x1="279.68" y1="-5276.58" x2="279.68" y2="-5402.67" gradientTransform="matrix(1, 0, 0, -1, 0, -5289.72)" gradientUnits="userSpaceOnUse"><stop offset="0" stop-color="#fff" stop-opacity="0"/><stop offset="0.13" stop-color="#fff" stop-opacity="0.02"/><stop offset="0.25" stop-color="#fff" stop-opacity="0.06"/><stop offset="0.38" stop-color="#fff" stop-opacity="0.14"/><stop offset="0.5" stop-color="#fff" stop-opacity="0.24"/><stop offset="0.62" stop-color="#fff" stop-opacity="0.38"/><stop offset="0.74" stop-color="#fff" stop-opacity="0.55"/><stop offset="0.86" stop-color="#fff" stop-opacity="0.75"/><stop offset="0.98" stop-color="#fff" stop-opacity="0.98"/><stop offset="0.99" stop-color="#fff"/></linearGradient></defs><title>ABD login banner</title><g class="cls-2"><g id="Capa_1" data-name="Capa 1"><g class="cls-3"><rect class="cls-4" width="451.54" height="552.64"/><path class="cls-5" d="M-79.21,491.75c20.82-20.23,55-33.09,86.95-27C29.72,469,49.3,479,69.4,487.51s42.2,15.73,64.63,13.67c49.1-4.52,80-50.53,128.63-57.73,51.73-7.66,105.59,31.34,153.85,14.13,34.85-12.44,52.13-50.62,89.55-55.86V599.85H-79.21Z"/><path class="cls-6" d="M-33.61,506.54c27,4.43,41.9-.13,64.3-12.23,15.05-8.12,27.74-19.7,45.67-23.21,21.9-4.28,44.52,5,61.41,16.27s31.19,25.18,51,33.36c41.17,17,93.9,4.25,131-17.38,16.05-9.36,30.56-20.33,48-28.11s39.23-12.12,58.26-6.77c15.66,4.41,27.18,14.61,42.1,20.27V632.4H-33.61Z"/><path class="cls-7" d="M468.21,71.39c-27-8.8-41.91.25-64.31,24.27-15,16.12-27.73,39.1-45.66,46.06-21.9,8.51-44.53-9.84-61.41-32.29s-31.2-50-51-66.21c-41.18-33.71-93.9-8.44-131,34.5C98.74,96.3,84.22,118.06,66.74,133.51S27.52,157.56,8.48,146.94c-15.66-8.74-27.17-29-42.09-40.22V-62.11H468.21Z"/><path class="cls-8" d="M-4.78,50.74c30.57-6.82,47.51.2,72.91,18.81,17.05,12.5,31.44,30.31,51.77,35.7,24.82,6.6,50.48-7.62,69.62-25s35.36-38.73,57.85-51.32c46.68-26.13,106.46-6.53,148.52,26.75,18.2,14.4,34.66,31.27,54.48,43.24s44.47,18.64,66,10.41c17.75-6.78,30.8-22.47,47.72-31.18V-13.13H-4.78Z"/><g class="cls-9"><path class="cls-10" d="M73.07,107.78a3.32,3.32,0,1,1-3.32-3.32A3.32,3.32,0,0,1,73.07,107.78Z"/><path class="cls-10" d="M317.31,429.07a3.33,3.33,0,1,1-3.32-3.32A3.32,3.32,0,0,1,317.31,429.07Z"/><path class="cls-10" d="M94.06,518.07a1.7,1.7,0,1,1-1.7-1.7A1.7,1.7,0,0,1,94.06,518.07Z"/><circle class="cls-10" cx="377.18" cy="424.98" r="3.64"/><path class="cls-10" d="M113,491.05a4.18,4.18,0,1,1-4.18-4.18A4.18,4.18,0,0,1,113,491.05Z"/><path class="cls-10" d="M77.19,85.08a2,2,0,1,1-2-2A2,2,0,0,1,77.19,85.08Z"/><path class="cls-10" d="M369.14,454.8a2,2,0,1,1-2-2A2,2,0,0,1,369.14,454.8Z"/><circle class="cls-10" cx="30.81" cy="97.36" r="1.2"/><path class="cls-10" d="M411.65,318.25a1.2,1.2,0,1,1-1.2-1.19A1.2,1.2,0,0,1,411.65,318.25Z"/><path class="cls-10" d="M150.55,457.75a1.17,1.17,0,1,1-1.17-1.17A1.16,1.16,0,0,1,150.55,457.75Z"/><path class="cls-10" d="M41.78,436.51a2.46,2.46,0,1,1-2.45-2.46A2.45,2.45,0,0,1,41.78,436.51Z"/><circle class="cls-10" cx="380.26" cy="351.42" r="1.2"/></g><g class="cls-11"><line class="cls-12" x1="-65.52" y1="576.71" x2="124.49" y2="386.69"/><path class="cls-10" d="M126.47,388.88a2.95,2.95,0,1,0-4.17,0A3,3,0,0,0,126.47,388.88Z"/></g><g class="cls-11"><line class="cls-12" x1="374.16" y1="190.32" x2="528.92" y2="35.57"/><path class="cls-10" d="M376.35,192.3a2.95,2.95,0,1,1,0-4.16A2.93,2.93,0,0,1,376.35,192.3Z"/></g><g class="cls-11"><line class="cls-12" x1="328.66" y1="572.6" x2="483.42" y2="417.85"/></g><g class="cls-11"><line class="cls-12" x1="354.55" y1="593.75" x2="509.3" y2="438.99"/></g><g class="cls-11"><line class="cls-12" x1="113.66" y1="176.8" x2="350.59" y2="-60.13"/><path class="cls-10" d="M115.85,178.78a2.95,2.95,0,1,1,0-4.17A3,3,0,0,1,115.85,178.78Z"/></g><g class="cls-11"><line class="cls-12" x1="219.33" y1="100.73" x2="456.26" y2="-136.2"/><path class="cls-10" d="M221.52,102.71a2.95,2.95,0,1,1,0-4.17A3,3,0,0,1,221.52,102.71Z"/></g><g class="cls-11"><line class="cls-12" x1="-33.2" y1="595.92" x2="105.05" y2="457.66"/><path class="cls-10" d="M107,459.85a2.95,2.95,0,1,0-4.17,0A3,3,0,0,0,107,459.85Z"/></g><path class="cls-13" d="M347.93,455.68a10.14,10.14,0,1,1-10.14-10.14A10.14,10.14,0,0,1,347.93,455.68Z"/><circle class="cls-14" cx="337.79" cy="455.68" r="19.95"/><circle class="cls-13" cx="45.24" cy="150.53" r="10.14"/><circle class="cls-14" cx="45.24" cy="150.53" r="19.95"/><path class="cls-13" d="M366.16,45.5A14.42,14.42,0,1,1,372,26,14.42,14.42,0,0,1,366.16,45.5Z"/><circle class="cls-14" cx="359.32" cy="32.8" r="21.8" transform="translate(270.76 382.58) rotate(-81.01)"/></g><text class="cls-15" transform="translate(156.58 512.02)">CONFIABLE<tspan class="cls-16" x="71.57" y="0" xml:space="preserve"> Y</tspan><tspan class="cls-17" x="82.99" y="0" xml:space="preserve"> S</tspan><tspan class="cls-18" x="94.81" y="0">E</tspan><tspan x="102.75" y="0">GU</tspan><tspan class="cls-19" x="120.88" y="0">R</tspan><tspan class="cls-17" x="129.49" y="0">O</tspan></text><path class="cls-10" d="M225.88,474.24l1.8.69a26.06,26.06,0,0,0,3.07,1c.53.13,1.07.25,1.61.34a10.69,10.69,0,0,0,1.15.1,1,1,0,0,1,.87.86,1.69,1.69,0,0,1,0,.23c0,2.05,0,4.1,0,6.15a8.67,8.67,0,0,1-.41,2.68,13.88,13.88,0,0,1-2.32,4.36,17.26,17.26,0,0,1-2.14,2.3,22.21,22.21,0,0,1-3.22,2.42,1,1,0,0,1-1.07,0,22.28,22.28,0,0,1-2.33-1.65,18.63,18.63,0,0,1-2.23-2.12,15.65,15.65,0,0,1-2.19-3.1,12,12,0,0,1-1.19-3.25,6.22,6.22,0,0,1-.14-1.36v-6.49a1,1,0,0,1,.32-.79.88.88,0,0,1,.6-.23,10,10,0,0,0,2-.25,25.66,25.66,0,0,0,3.41-1c.66-.24,1.31-.51,2-.76a2.41,2.41,0,0,1,.25-.08Zm-6.82,4v.11c0,1.8,0,3.61,0,5.41a6.37,6.37,0,0,0,.24,1.68,11.68,11.68,0,0,0,2,4,16,16,0,0,0,2.11,2.24,22,22,0,0,0,2.25,1.73.11.11,0,0,0,.16,0,20.45,20.45,0,0,0,2.44-1.9,15.51,15.51,0,0,0,2.17-2.41,11.29,11.29,0,0,0,1.81-3.74,5.1,5.1,0,0,0,.2-1.23c0-1.92,0-3.85,0-5.77v-.1c-.32,0-.63-.09-.93-.15a25.79,25.79,0,0,1-3.47-.95c-.75-.27-1.49-.56-2.23-.84a.17.17,0,0,0-.14,0c-.87.32-1.73.66-2.61,1a19,19,0,0,1-2.58.72C220,478.05,219.56,478.13,219.06,478.22Z"/><path class="cls-10" d="M224.34,486.17l.3-.29,3.13-3.14,1.22-1.22a1,1,0,0,1,1.17-.2,1,1,0,0,1,.26,1.47c-.43.46-.87.89-1.31,1.33L225,488.19a1,1,0,0,1-.54.33.88.88,0,0,1-.85-.23c-.2-.21-.38-.44-.57-.66l-1.25-1.51c-.25-.3-.51-.59-.75-.9a1,1,0,0,1,.57-1.52,1,1,0,0,1,1,.39l1.67,2Z"/><g id="Grupo_202" data-name="Grupo 202"><path id="Trazado_403" data-name="Trazado 403" class="cls-20" d="M193.49,245.56h-40.4l0-.07h40.3Z"/><g id="ACCESORIOS_BENDICION_DE_DIOS" data-name="ACCESORIOS BENDICION DE DIOS" class="cls-2"><text class="cls-21" transform="translate(62.14 323.42)">A<tspan class="cls-22" x="13.48" y="0">C</tspan><tspan class="cls-23" x="26.35" y="0">CESORIOS BENDICION DE DIOS</tspan></text></g><path id="Trazado_404" data-name="Trazado 404" class="cls-24" d="M155.49,236a14.19,14.19,0,0,1,1.68-2.38Z"/><path id="Trazado_405" data-name="Trazado 405" class="cls-24" d="M180.65,235.5,179.58,234A17.87,17.87,0,0,1,180.65,235.5Z"/><g id="Grupo_201" data-name="Grupo 201"><path id="Trazado_22" data-name="Trazado 22" class="cls-10" d="M179.58,234a14.61,14.61,0,0,0-11.38-5.44,14.59,14.59,0,0,0-11,5L155.49,236l-38.55,54.42h22.93L163.51,257l4.72-6.66,4.7,6.64,6.7,9.46h22.94l-21.92-30.94Z"/><path id="Trazado_23" data-name="Trazado 23" class="cls-10" d="M258,284.94c4.8-4,5.09-11.12,5.1-12.37v-.19a15.24,15.24,0,0,0-8.59-13.72,15.25,15.25,0,0,0,7.21-13v-1.06a15.47,15.47,0,0,0-.35-3.25c-4-10.45-15.69-11.85-20.08-12H184.92l10.88,15.88h44.61a4,4,0,0,1,4,4h0a4,4,0,0,1-4,4h-39.1l9,13.13h30.1a4,4,0,0,1,4,4h0a4.21,4.21,0,0,1-4,4.24H177.1l-9.19-13.13-9.19,13.13-11,15.67h90.56c10.11,0,16.08-2.49,19.62-5.42Z"/><g id="Grupo_4" data-name="Grupo 4"><path id="Trazado_24" data-name="Trazado 24" class="cls-10" d="M314.73,229H255.59a17.22,17.22,0,0,1,9.82,9.84,15.47,15.47,0,0,1,.35,3.25v1.06c0,.5,0,1-.07,1.48h45.49A14.86,14.86,0,0,1,326,259.47h0a14.86,14.86,0,0,1-14.86,14.86H284.94V251.64H266.15V290h48.58a30.5,30.5,0,0,0,30.49-30.49h0A30.5,30.5,0,0,0,314.73,229Z"/></g></g></g><path class="cls-10" d="M242.17,533.32h-32.8a3.06,3.06,0,0,1-3.06-3.06h0a3.06,3.06,0,0,1,3.06-3.06h32.8a3.06,3.06,0,0,1,3.06,3.06h0A3.06,3.06,0,0,1,242.17,533.32Z"/></g></g></svg>