<svg id="Capa_1" data-name="Capa 1" xmlns="http://www.w3.org/2000/svg" viewBox="0 0 683 199"><defs><style>.cls-1{fill:aqua;opacity:0.1;}.cls-1,.cls-2,.cls-3,.cls-6{isolation:isolate;}.cls-3{font-size:33.02px;font-family:Montserrat-Bold, Montserrat;font-weight:700;letter-spacing:0.09em;}.cls-3,.cls-7{fill:#5d6e75;}.cls-4{letter-spacing:0.09em;}.cls-5{letter-spacing:0.1em;}.cls-6{fill:red;opacity:0.35;}.cls-8{fill:#2a7ffe;}</style></defs><title>ABD system</title><g id="Grupo_202" data-name="Grupo 202"><path id="Trazado_403" data-name="Trazado 403" class="cls-1" d="M275.8,35.29H191.06l.1-.14H275.7Z"/><g id="ACCESORIOS_BENDICION_DE_DIOS" data-name="ACCESORIOS BENDICION DE DIOS" class="cls-2"><text class="cls-3" transform="translate(0.3 198.6)">A<tspan class="cls-4" x="28.26" y="0">C</tspan><tspan class="cls-5" x="55.27" y="0">CESORIOS BENDICION DE DIOS</tspan></text></g><path id="Trazado_404" data-name="Trazado 404" class="cls-6" d="M196.09,15.16a30.6,30.6,0,0,1,3.53-5Z"/><path id="Trazado_405" data-name="Trazado 405" class="cls-6" d="M248.86,14.2,246.61,11A30.33,30.33,0,0,1,248.86,14.2Z"/><g id="Grupo_201" data-name="Grupo 201"><path id="Trazado_22" data-name="Trazado 22" class="cls-7" d="M246.61,11a30.6,30.6,0,0,0-47-.85l-3.53,5L115.23,129.31h48.1l49.59-70,9.89-14,9.86,13.93,14.07,19.85h48.1l-46-64.91Z"/><path id="Trazado_23" data-name="Trazado 23" class="cls-8" d="M411,117.9c10.07-8.36,10.67-23.32,10.7-25.94v-.41a32,32,0,0,0-18-28.78,32,32,0,0,0,15.13-27.18V33.37a31.85,31.85,0,0,0-.74-6.81C409.77,4.63,385.18,1.71,376,1.39H257.82L280.64,34.7h93.57a8.44,8.44,0,0,1,8.44,8.44h0a8.44,8.44,0,0,1-8.44,8.44h-82l18.87,27.53h63.14a8.44,8.44,0,0,1,8.44,8.44h0a8.84,8.84,0,0,1-8.44,8.89H241.41L222.14,68.9,202.87,96.44l-23,32.86h190c21.2,0,33.74-5.22,41.16-11.36Z"/><g id="Grupo_4" data-name="Grupo 4"><path id="Trazado_24" data-name="Trazado 24" class="cls-7" d="M530.09.51h-124c8.29,3.52,16.45,9.72,20.58,20.63a31.85,31.85,0,0,1,.74,6.81v2.22q0,1.57-.15,3.12h95.41a31.17,31.17,0,0,1,31.18,31.17h0a31.18,31.18,0,0,1-31.18,31.18h-55V48.05H428.2v80.37H530.09a64,64,0,0,0,63.95-64h0A64,64,0,0,0,530.09.51Z"/></g></g></g></svg>