<svg id="Capa_1" data-name="Capa 1" xmlns="http://www.w3.org/2000/svg" viewBox="0 0 129.45 35.05"><defs><style>.cls-1,.cls-2{fill:#fff;}.cls-1,.cls-3{opacity:0.5;}.cls-1{isolation:isolate;}</style></defs><title>ABD system little</title><g id="Grupo_204" data-name="Grupo 204"><path id="Trazado_406" data-name="Trazado 406" class="cls-1" d="M35.52,3.08a8.29,8.29,0,0,0-12.71-.23L21.86,4.2,0,35.06H13L26.41,16.13l2.67-3.77,2.67,3.76,3.8,5.37h13L36.12,3.94Z"/><path id="Trazado_407" data-name="Trazado 407" class="cls-2" d="M80,32c2.72-2.26,2.89-6.3,2.9-7v-.11A8.64,8.64,0,0,0,78,17.07a8.65,8.65,0,0,0,4.08-7.35v-.6a8.71,8.71,0,0,0-.2-1.84C79.63,1.35,73,.56,70.5.48H38.56l6.17,9H70a2.28,2.28,0,0,1,2.28,2.28h0A2.28,2.28,0,0,1,70,14H47.85L53,21.49H70a2.28,2.28,0,0,1,2.28,2.28h0A2.39,2.39,0,0,1,70,26.17H34.12l-5.21-7.45-5.2,7.45-6.22,8.88H68.83C74.57,35.05,78,33.64,80,32Z"/><g id="Grupo_203" data-name="Grupo 203" class="cls-3"><path id="Trazado_18" data-name="Trazado 18" class="cls-2" d="M112.16.24H78.63a9.79,9.79,0,0,1,5.56,5.58,8.11,8.11,0,0,1,.2,1.84v.6a7.94,7.94,0,0,1,0,.85h25.8a8.43,8.43,0,0,1,8.43,8.43h0A8.44,8.44,0,0,1,110.15,26H95.26V13.11H84.61V34.83h27.55a17.29,17.29,0,0,0,17.29-17.29h0A17.3,17.3,0,0,0,112.17.24Z"/></g></g></svg>