<svg id="Capa_1" data-name="Capa 1" xmlns="http://www.w3.org/2000/svg" viewBox="0 0 20 20"><defs><style>.cls-1{isolation:isolate;}</style></defs><title>marcas</title><g id="Icon_feather-bookmark" data-name="Icon feather-bookmark" class="cls-1"><path d="M3.7,18.94a.86.86,0,0,1-.38-.1.82.82,0,0,1-.45-.74V3.7A2.64,2.64,0,0,1,5.5,1.06h9A2.64,2.64,0,0,1,17.13,3.7V18.1a.83.83,0,0,1-1.31.68L10,14.62,4.18,18.78A.84.84,0,0,1,3.7,18.94ZM10,12.77a.83.83,0,0,1,.48.15l5,3.56V3.7a1,1,0,0,0-1-1h-9a1,1,0,0,0-1,1V16.48l5-3.56A.83.83,0,0,1,10,12.77Z"/></g></svg>