<svg id="Capa_1" data-name="Capa 1" xmlns="http://www.w3.org/2000/svg" viewBox="0 0 30 30"><defs><style>.cls-1,.cls-2{fill:#fff;}.cls-2{fill-rule:evenodd;}</style></defs><title>nuevo editar</title><path class="cls-1" d="M29.69,3.09a1.08,1.08,0,0,1,0,1.51L27.45,6.84,23.17,2.55,25.4.31a1.09,1.09,0,0,1,1.52,0l2.77,2.77ZM25.94,8.35,21.65,4.06,7.05,18.67a1.07,1.07,0,0,0-.26.42L5.07,24.26a.54.54,0,0,0,.34.68.65.65,0,0,0,.34,0l5.17-1.73a1,1,0,0,0,.42-.26l14.6-14.6Z"/><path class="cls-2" d="M0,26.79A3.21,3.21,0,0,0,3.21,30H26.79A3.21,3.21,0,0,0,30,26.79V13.93a1.07,1.07,0,0,0-2.14,0V26.79a1.07,1.07,0,0,1-1.07,1.07H3.21a1.07,1.07,0,0,1-1.07-1.07V3.21A1.07,1.07,0,0,1,3.21,2.14H17.14a1.07,1.07,0,1,0,0-2.14H3.21A3.21,3.21,0,0,0,0,3.21Z"/></svg>