<svg id="Capa_1" data-name="Capa 1" xmlns="http://www.w3.org/2000/svg" viewBox="0 0 30 30"><defs><style>.cls-1,.cls-2{fill:#fff;}.cls-2{fill-rule:evenodd;}</style></defs><title>nuevo eliminar</title><path class="cls-1" d="M12.13,12.13a.72.72,0,0,1,.72.72v8.6a.72.72,0,1,1-1.43,0v-8.6A.71.71,0,0,1,12.13,12.13Z"/><path class="cls-1" d="M15,12.13a.72.72,0,0,1,.72.72v8.6a.72.72,0,0,1-1.44,0v-8.6A.72.72,0,0,1,15,12.13Z"/><path class="cls-1" d="M18.58,12.85a.72.72,0,1,0-1.43,0v8.6a.72.72,0,1,0,1.43,0Z"/><path class="cls-2" d="M24.32,8.55A1.43,1.43,0,0,1,22.89,10h-.72V22.89a2.86,2.86,0,0,1-2.87,2.86H10.7a2.86,2.86,0,0,1-2.87-2.86V10H7.11A1.43,1.43,0,0,1,5.68,8.55V7.11A1.43,1.43,0,0,1,7.11,5.68h5a1.43,1.43,0,0,1,1.44-1.43h2.86a1.43,1.43,0,0,1,1.44,1.43h5a1.43,1.43,0,0,1,1.43,1.43ZM9.8,10.46l-.15.08v12A1.34,1.34,0,0,0,11,23.84h8a1.34,1.34,0,0,0,1.33-1.34v-12l-.15-.08Zm-2.31-2V7.15h15V8.51Z"/><path class="cls-2" d="M0,26.79A3.21,3.21,0,0,0,3.21,30H26.79A3.21,3.21,0,0,0,30,26.79V13.93a1.07,1.07,0,0,0-2.14,0V26.79a1.07,1.07,0,0,1-1.07,1.07H3.21a1.07,1.07,0,0,1-1.07-1.07V3.21A1.07,1.07,0,0,1,3.21,2.14H17.14a1.07,1.07,0,1,0,0-2.14H3.21A3.21,3.21,0,0,0,0,3.21Z"/></svg>