<svg id="Capa_1" data-name="Capa 1" xmlns="http://www.w3.org/2000/svg" viewBox="0 0 20 20"><defs><style>.cls-1{isolation:isolate;}</style></defs><title>proveedor</title><path id="Icon_simple-superuser" data-name="Icon simple-superuser" class="cls-1" d="M16.33,11.77c-1.06.3-1.78.91-1.78,1.94v2.92c0,2.17-2.07,1.93-4.65,1.93H9.5c-.16,0-.25-.06-.25-.2v-1c0-.14.08-.2.24-.2h.33c1.54,0,2.62.34,2.62-.9V13.46A2.81,2.81,0,0,1,14.24,11c.08,0,.1-.06.1-.1a.19.19,0,0,0-.1-.14,2.65,2.65,0,0,1-1.8-2.3V5.27A2.55,2.55,0,0,0,9.82,2.83H9.5c-.16,0-.23-.06-.23-.2v-1c0-.13.1-.2.26-.2h.4c2.57,0,4.67,1.84,4.67,4V8.11c0,1,.72,1.58,1.8,2,.39.12.62.14.62.46v.84c0,.18-.17.26-.65.4ZM7.21,18.54h-4c-.16,0-.24,0-.24-.18V1.63c0-.12.07-.2.24-.2h4c.16,0,.25.06.25.2v1c0,.14-.08.18-.24.18H5.41c-.21,0-.3.08-.3.21V16.92c0,.14.08.19.26.19h1.8c.16,0,.26.06.26.19v1.06c0,.12-.06.18-.22.18Zm3.48-9.3H9.63a.46.46,0,0,1-.46-.43v-1a.44.44,0,0,1,.46-.42h1.06a.45.45,0,0,1,.46.42v1a.44.44,0,0,1-.46.42h0Z"/></svg>