<svg id="Capa_1" data-name="Capa 1" xmlns="http://www.w3.org/2000/svg" viewBox="0 0 30 30"><defs><style>.cls-1{fill:#fff;}</style></defs><title>reporte</title><path class="cls-1" d="M8.55,15a.38.38,0,0,1,.18-.32.47.47,0,0,1,.35-.14H20.91a.48.48,0,0,1,.35.14.41.41,0,0,1,.18.32v.83c0,.15-.06.25-.18.27a.58.58,0,0,1-.35.14H9.08a.58.58,0,0,1-.35-.14.24.24,0,0,1-.18-.27Z"/><path class="cls-1" d="M8.55,23.42a.4.4,0,0,1,.18-.33A.56.56,0,0,1,9.08,23H20.91a.58.58,0,0,1,.35.14.43.43,0,0,1,.18.33v.82c0,.16-.06.25-.18.28a.58.58,0,0,1-.35.14H9.08a.58.58,0,0,1-.35-.14c-.12,0-.18-.12-.18-.28Z"/><path class="cls-1" d="M8.55,19.19a.41.41,0,0,1,.18-.33.5.5,0,0,1,.35-.13H20.91a.52.52,0,0,1,.35.13.44.44,0,0,1,.18.33V20c0,.16-.06.25-.18.28a.58.58,0,0,1-.35.14H9.08a.58.58,0,0,1-.35-.14c-.12,0-.18-.12-.18-.28Z"/><path class="cls-1" d="M27.54,7.62a4.27,4.27,0,0,0-.82-1.23L21.5,1.11A4.52,4.52,0,0,0,20.21.35,3.48,3.48,0,0,0,18.75,0h-15A1.57,1.57,0,0,0,2.63.47a1.42,1.42,0,0,0-.47,1.11V28.42a1.42,1.42,0,0,0,.47,1.11A1.57,1.57,0,0,0,3.75,30h22.5a1.57,1.57,0,0,0,1.12-.47,1.42,1.42,0,0,0,.47-1.11V9.08A3.67,3.67,0,0,0,27.54,7.62ZM19.27,2.28a2.09,2.09,0,0,1,.7.35l5.21,5.28a1,1,0,0,1,.42.64H19.27Zm6.45,25.55H4.27V2.17h12.9V9.08a1.47,1.47,0,0,0,.46,1.17,1.49,1.49,0,0,0,1.12.47h7Z"/></svg>