<svg id="Capa_1" data-name="Capa 1" xmlns="http://www.w3.org/2000/svg" viewBox="0 0 30 30"><defs><style>.cls-1{fill:#fff;}</style></defs><title>users</title><g id="Icon_feather-users" data-name="Icon feather-users"><g id="Trazado_412" data-name="Trazado 412"><path class="cls-1" d="M20.59,25.94a.87.87,0,0,1-.86-.87V22.83a3.61,3.61,0,0,0-3.61-3.6h-9a3.6,3.6,0,0,0-3.6,3.6v2.24a.87.87,0,0,1-1.74,0V22.83a5.34,5.34,0,0,1,5.34-5.34h9a5.35,5.35,0,0,1,5.34,5.34v2.24A.87.87,0,0,1,20.59,25.94Z"/></g><g id="Trazado_413" data-name="Trazado 413"><path class="cls-1" d="M11.64,14.75A5.35,5.35,0,1,1,17,9.4,5.35,5.35,0,0,1,11.64,14.75Zm0-8.95a3.61,3.61,0,1,0,3.61,3.6A3.6,3.6,0,0,0,11.64,5.8Z"/></g><g id="Trazado_414" data-name="Trazado 414"><path class="cls-1" d="M27.31,25.94a.87.87,0,0,1-.87-.87V22.83a3.6,3.6,0,0,0-2.71-3.49.86.86,0,0,1-.62-1.05.87.87,0,0,1,1.06-.63,5.35,5.35,0,0,1,4,5.17v2.24A.87.87,0,0,1,27.31,25.94Z"/></g><g id="Trazado_415" data-name="Trazado 415"><path class="cls-1" d="M19.47,14.62a.88.88,0,0,1-.84-.66.87.87,0,0,1,.63-1.06,3.6,3.6,0,0,0,0-7,.87.87,0,1,1,.43-1.69,5.35,5.35,0,0,1,0,10.36A.78.78,0,0,1,19.47,14.62Z"/></g></g></svg>