<svg id="Capa_1" data-name="Capa 1" xmlns="http://www.w3.org/2000/svg" viewBox="0 0 30 30"><defs><style>.cls-1{fill:#fff;}</style></defs><title>view blanco</title><path class="cls-1" d="M30,15S24.38,4.69,15,4.69,0,15,0,15,5.62,25.31,15,25.31,30,15,30,15ZM2.2,15a24.92,24.92,0,0,1,3.11-3.83C7.72,8.75,11,6.56,15,6.56s7.27,2.19,9.69,4.61A24.34,24.34,0,0,1,27.8,15l-.36.54a24.94,24.94,0,0,1-2.75,3.29C22.27,21.25,19,23.44,15,23.44s-7.27-2.19-9.69-4.61A24.34,24.34,0,0,1,2.2,15Z"/><path class="cls-1" d="M15,10.31A4.69,4.69,0,1,0,19.69,15,4.69,4.69,0,0,0,15,10.31ZM8.44,15A6.56,6.56,0,1,1,15,21.56,6.56,6.56,0,0,1,8.44,15Z"/></svg>